<svg width="39" height="26" viewBox="0 0 39 26" fill="none" xmlns="http://www.w3.org/2000/svg">
<path d="M14.5284 12.4698C14.5284 13.7361 13.5007 14.7638 12.2344 14.7638C10.9681 14.7638 9.94043 13.7361 9.94043 12.4698C9.94043 11.2035 10.9681 10.1758 12.2344 10.1758C13.5007 10.1758 14.5284 11.2035 14.5284 12.4698Z" fill="#333333"/>
<path d="M21.8232 7.11719H17.9387C16.4782 7.11719 15.293 8.30243 15.293 9.76294V14.7639C15.293 15.6081 15.9781 16.2932 16.8223 16.2932V25.4693H22.9397V16.2932C23.7839 16.2932 24.469 15.6081 24.469 14.7639V9.76294C24.469 8.30243 23.2838 7.11719 21.8232 7.11719Z" fill="#333333"/>
<path d="M22.9396 4.05868C22.9396 5.7486 21.5709 7.11735 19.8809 7.11735C18.191 7.11735 16.8223 5.7486 16.8223 4.05868C16.8223 2.36876 18.191 1 19.8809 1C21.5709 1 22.9396 2.36876 22.9396 4.05868Z" fill="#333333"/>
<path d="M6.53028 8.64844H2.64576C1.18524 8.64844 0 9.83368 0 11.2942C0 12.7547 1.18524 13.9399 2.64576 13.9399C4.10627 13.9399 5.29151 12.7547 5.29151 11.2942C5.29151 9.83368 4.10627 8.64844 2.64576 8.64844C1.18524 8.64844 0 9.83368 0 11.2942V14.7658C0 15.61 0.685144 16.2951 1.52934 16.2951L0 20.8831H1.52934V25.4712H7.64669V20.8831H9.17603L7.64669 16.2951C8.49089 16.2951 9.17603 15.61 9.17603 14.7658V11.2942C9.17603 9.83368 7.99079 8.64844 6.53028 8.64844Z" fill="#333333"/>
<path d="M7.64665 5.58993C7.64665 7.27985 6.27789 8.6486 4.58797 8.6486C2.89805 8.6486 1.5293 7.27985 1.5293 5.58993C1.5293 3.90001 2.89805 2.53125 4.58797 2.53125C6.27789 2.53125 7.64665 3.90001 7.64665 5.58993Z" fill="#333333"/>
<path d="M10.7051 20.883V25.471H13.7638V20.883C14.608 20.883 15.2931 20.1978 15.2931 19.3536V16.9985C15.2931 15.7658 14.2929 14.7656 13.0603 14.7656H11.4086C10.176 14.7656 9.17578 15.7658 9.17578 16.9985V19.3536C9.17578 20.1978 9.86092 20.883 10.7051 20.883Z" fill="#333333"/>
<path fill-rule="evenodd" clip-rule="evenodd" d="M36.1765 3.14439C36.1765 4.88166 34.755 6.28877 33 6.28877C31.245 6.28877 29.8235 4.88166 29.8235 3.14439C29.8235 1.40711 31.245 0 33 0C34.755 0 36.1765 1.40711 36.1765 3.14439ZM35.2941 6.98749C35.2194 6.96946 35.1395 7.00576 35.1032 7.07885L33.7059 11.0303V9.78253L33.5031 8.37755C33.6332 8.35044 33.7394 8.25205 33.7727 8.12037L33.9492 7.42162C34.0049 7.20113 33.8364 6.98752 33.6068 6.98752H32.3932C32.1636 6.98752 31.9951 7.20113 32.0508 7.42162L32.2273 8.12037C32.2605 8.25205 32.3668 8.35044 32.4969 8.37755L32.2941 9.78253V10.7245L30.8968 7.07885C30.8605 7.00576 30.7806 6.96946 30.7059 6.98749C30.5793 7.01806 30.443 7.04964 30.3007 7.08259C29.5024 7.26751 28.5157 7.49607 27.9911 7.83707C27.3689 8.24143 27 8.71812 27 9.25843V11.5294L32.2941 11.5293L33.7059 11.5294L39 11.5294V9.25843C39 8.71812 38.6311 8.24143 38.0089 7.83707C37.4843 7.49607 36.4976 7.26751 35.6992 7.08255C35.557 7.04961 35.4207 7.01806 35.2941 6.98749Z" fill="#333333"/>
</svg>
