<svg width="23" height="23" viewBox="0 0 23 23" fill="none" xmlns="http://www.w3.org/2000/svg">
<path fill-rule="evenodd" clip-rule="evenodd" d="M9.10122 0.899934C6.05512 -0.814558 3.35645 -0.0083763 1.11339 2.7149C-1.05151 5.34334 0.424506 10.0812 1.48558 13.487C1.73855 14.299 1.96799 15.0354 2.11878 15.6494C2.9022 18.8384 3.6517 20.8256 5.36075 22.2637C6.20717 22.9759 7.16687 21.752 8.17938 20.4608C9.05726 19.3413 9.97482 18.1712 10.8926 18.1684C11.7955 18.1657 12.6985 19.3339 13.5642 20.4538C14.5634 21.7466 15.5129 22.9748 16.3548 22.2637C17.6602 21.1612 18.2531 20.3523 18.9703 18.0808C19.7526 15.6037 21.0156 12.6415 22.0197 9.22687C22.7263 6.82436 22.8109 4.37851 20.7747 2.01751C17.8676 -1.35323 13.8382 0.387835 11.9625 1.50265L14.5031 3.68064C14.7976 3.93304 14.8317 4.37641 14.5793 4.67088C14.3269 4.96536 13.8835 4.99949 13.589 4.74701L9.10122 0.899934Z" fill="#333333"/>
</svg>
