<svg width="25" height="25" viewBox="0 0 25 25" fill="none" xmlns="http://www.w3.org/2000/svg">
<path d="M4.09894 2.7518C4.85885 2.7518 5.47484 2.13579 5.47484 1.3759C5.47484 0.616012 4.85885 0 4.09894 0C3.58965 0 3.14502 0.276694 2.90713 0.687951H2.72303C1.5832 0.687951 0.65918 1.61197 0.65918 2.7518V8.94337H2.03508V2.7518C2.03508 2.37186 2.34309 2.06385 2.72303 2.06385H2.90713C3.14502 2.47511 3.58965 2.7518 4.09894 2.7518Z" fill="#333333"/>
<path fill-rule="evenodd" clip-rule="evenodd" d="M2.83338 8.94337H2.03521H0.659312C0.27937 8.94337 -0.0318655 9.25205 0.00261459 9.63042C0.162556 11.3855 0.931521 13.0381 2.18784 14.2944C3.10911 15.2156 4.2434 15.8748 5.47497 16.224V17.8867C5.47497 18.7855 6.04941 19.55 6.85115 19.8332C6.88045 22.5627 9.10219 24.7662 11.8385 24.7662C14.5931 24.7662 16.8262 22.5332 16.8262 19.7786V17.0268C16.8262 15.602 17.9812 14.447 19.406 14.447C20.8308 14.447 21.9858 15.602 21.9858 17.0268V18.6921C21.1842 18.9754 20.6099 19.7399 20.6099 20.6385C20.6099 21.7784 21.5339 22.7024 22.6737 22.7024C23.8136 22.7024 24.7376 21.7784 24.7376 20.6385C24.7376 19.7399 24.1633 18.9754 23.3617 18.6921V17.0268C23.3617 14.8421 21.5906 13.0711 19.406 13.0711C17.2213 13.0711 15.4503 14.8421 15.4503 17.0268V19.7786C15.4503 21.7733 13.8332 23.3903 11.8385 23.3903C9.86197 23.3903 8.25629 21.8026 8.22719 19.833C9.02858 19.5496 9.60268 18.7852 9.60268 17.8867V16.224C10.8342 15.8748 11.9686 15.2156 12.8898 14.2944C14.1462 13.0381 14.9151 11.3855 15.0751 9.63042C15.1096 9.25205 14.7983 8.94337 14.4183 8.94337V2.7518C14.4183 1.61197 13.4943 0.687951 12.3545 0.687951H12.1704C11.9325 0.276694 11.4879 0 10.9786 0C10.2187 0 9.60268 0.616012 9.60268 1.3759C9.60268 2.13579 10.2187 2.7518 10.9786 2.7518C11.4879 2.7518 11.9325 2.47511 12.1704 2.06385H12.3545C12.7344 2.06385 13.0424 2.37186 13.0424 2.7518V8.94337H12.2443C11.8644 8.94337 11.5624 9.25356 11.4976 9.62801C11.3573 10.4394 10.9698 11.1941 10.3796 11.7842C9.62627 12.5376 8.60439 12.9609 7.53882 12.9609C6.47332 12.9609 5.45144 12.5376 4.698 11.7842C4.10794 11.1941 3.72035 10.4394 3.58001 9.62801C3.51527 9.25356 3.21326 8.94337 2.83338 8.94337ZM12.7538 10.3193H13.5756C13.3185 11.4472 12.7481 12.4904 11.9169 13.3215C10.7558 14.4826 9.18096 15.1349 7.53882 15.1349C5.89675 15.1349 4.32189 14.4826 3.16077 13.3215C2.32964 12.4904 1.75919 11.4472 1.50207 10.3193H2.32383C2.5651 11.2336 3.04485 12.0768 3.7251 12.7571C4.73659 13.7686 6.10844 14.3368 7.53882 14.3368C8.96928 14.3368 10.3411 13.7686 11.3526 12.7571C12.0329 12.0768 12.5126 11.2336 12.7538 10.3193ZM22.6737 19.9506C23.0537 19.9506 23.3617 20.2586 23.3617 20.6385C23.3617 21.0185 23.0537 21.3265 22.6737 21.3265C22.2938 21.3265 21.9858 21.0185 21.9858 20.6385C21.9858 20.2586 22.2938 19.9506 22.6737 19.9506ZM8.22677 16.5108V17.8867C8.22677 18.2667 7.91878 18.5747 7.53882 18.5747C7.15887 18.5747 6.85087 18.2667 6.85087 17.8867V16.5108H8.22677Z" fill="#333333"/>
</svg>
