<svg width="23" height="22" viewBox="0 0 23 22" fill="none" xmlns="http://www.w3.org/2000/svg">
<path fill-rule="evenodd" clip-rule="evenodd" d="M17.2785 5.98101C17.2785 9.28551 14.602 11.962 11.2975 11.962C7.99295 11.962 5.31645 9.28551 5.31645 5.98101C5.31645 2.6765 7.99295 0 11.2975 0C14.602 0 17.2785 2.6765 17.2785 5.98101ZM15.6171 13.2911C15.4765 13.2568 15.3259 13.3258 15.2576 13.4648L12.6266 20.981V18.6076L12.2448 15.9351C12.4897 15.8836 12.6898 15.6964 12.7524 15.446L13.0847 14.1168C13.1895 13.6974 12.8723 13.2911 12.44 13.2911H10.155C9.72259 13.2911 9.40533 13.6974 9.5102 14.1168L9.84248 15.446C9.90508 15.6964 10.1052 15.8836 10.3501 15.9351L9.96835 18.6076V20.3994L7.3373 13.4648C7.26898 13.3258 7.11846 13.2568 6.97784 13.2911C6.73947 13.3492 6.48281 13.4093 6.215 13.472C4.71171 13.8237 2.85387 14.2585 1.86607 14.9071C0.694687 15.6762 0 16.5829 0 17.6107V21.9303L9.96835 21.9302L12.6266 21.9304L22.5949 21.9303V17.6107C22.5949 16.5829 21.9003 15.6762 20.7288 14.9071C19.741 14.2585 17.8831 13.8237 16.3799 13.4719C16.112 13.4092 15.8555 13.3492 15.6171 13.2911Z" fill="#333333"/>
</svg>
