<svg width="25" height="25" viewBox="0 0 25 25" fill="none" xmlns="http://www.w3.org/2000/svg">
<path d="M14.5284 11.4698C14.5284 12.7361 13.5007 13.7638 12.2344 13.7638C10.9681 13.7638 9.94043 12.7361 9.94043 11.4698C9.94043 10.2035 10.9681 9.17578 12.2344 9.17578C13.5007 9.17578 14.5284 10.2035 14.5284 11.4698Z" fill="#333333"/>
<path d="M21.8232 6.11719H17.9387C16.4782 6.11719 15.293 7.30243 15.293 8.76294V13.7639C15.293 14.6081 15.9781 15.2932 16.8223 15.2932V24.4693H22.9397V15.2932C23.7839 15.2932 24.469 14.6081 24.469 13.7639V8.76294C24.469 7.30243 23.2838 6.11719 21.8232 6.11719Z" fill="#333333"/>
<path d="M22.9396 3.05868C22.9396 4.7486 21.5709 6.11735 19.8809 6.11735C18.191 6.11735 16.8223 4.7486 16.8223 3.05868C16.8223 1.36876 18.191 0 19.8809 0C21.5709 0 22.9396 1.36876 22.9396 3.05868Z" fill="#333333"/>
<path d="M6.53028 7.64844H2.64576C1.18524 7.64844 0 8.83368 0 10.2942C0 11.7547 1.18524 12.9399 2.64576 12.9399C4.10627 12.9399 5.29151 11.7547 5.29151 10.2942C5.29151 8.83368 4.10627 7.64844 2.64576 7.64844C1.18524 7.64844 0 8.83368 0 10.2942V13.7658C0 14.61 0.685144 15.2951 1.52934 15.2951L0 19.8831H1.52934V24.4712H7.64669V19.8831H9.17603L7.64669 15.2951C8.49089 15.2951 9.17603 14.61 9.17603 13.7658V10.2942C9.17603 8.83368 7.99079 7.64844 6.53028 7.64844Z" fill="#333333"/>
<path d="M7.64665 4.58993C7.64665 6.27985 6.27789 7.6486 4.58797 7.6486C2.89805 7.6486 1.5293 6.27985 1.5293 4.58993C1.5293 2.90001 2.89805 1.53125 4.58797 1.53125C6.27789 1.53125 7.64665 2.90001 7.64665 4.58993Z" fill="#333333"/>
<path d="M10.7051 19.883V24.471H13.7638V19.883C14.608 19.883 15.2931 19.1978 15.2931 18.3536V15.9985C15.2931 14.7658 14.2929 13.7656 13.0603 13.7656H11.4086C10.176 13.7656 9.17578 14.7658 9.17578 15.9985V18.3536C9.17578 19.1978 9.86092 19.883 10.7051 19.883Z" fill="#333333"/>
</svg>
